<mxfile host="app.diagrams.net" modified="2021-06-10T08:24:17.109Z" agent="5.0 (Macintosh; Intel Mac OS X 10_13_6) AppleWebKit/537.36 (KHTML, like Gecko) Chrome/90.0.4430.212 Safari/537.36" etag="7HgpBO3QNVocdUeK0g9k" version="14.7.7" type="github">
  <diagram id="Is7nYFCBdMyNHaLq8IZW" name="第 1 页">
    <mxGraphModel dx="946" dy="1046" grid="0" gridSize="10" guides="1" tooltips="1" connect="1" arrows="1" fold="1" page="0" pageScale="1" pageWidth="827" pageHeight="1169" math="0" shadow="0">
      <root>
        <mxCell id="0" />
        <mxCell id="1" parent="0" />
        <mxCell id="AUB2p11LhJhiM78vF_-q-6" value="" style="rounded=0;whiteSpace=wrap;html=1;comic=1;fontFamily=Comic Sans MS;fontSize=16;fillColor=#ffe6cc;strokeColor=#d79b00;" parent="1" vertex="1">
          <mxGeometry x="84.63" y="-80" width="731" height="300" as="geometry" />
        </mxCell>
        <mxCell id="AUB2p11LhJhiM78vF_-q-33" value="" style="line;strokeWidth=2;html=1;rounded=0;comic=1;fontFamily=Comic Sans MS;fontSize=16;sketch=0;dashed=1;fillColor=#f5f5f5;strokeColor=#666666;fontColor=#333333;" parent="1" vertex="1">
          <mxGeometry x="160" y="55" width="640" height="10" as="geometry" />
        </mxCell>
        <mxCell id="1ueHQHKciYsmYRuD5N_B-34" value="Qcs" style="text;html=1;strokeColor=none;fillColor=none;align=center;verticalAlign=middle;whiteSpace=wrap;rounded=0;comic=1;fontFamily=Comic Sans MS;fontSize=16;fontStyle=1" parent="1" vertex="1">
          <mxGeometry x="20" y="330" width="50" height="20" as="geometry" />
        </mxCell>
        <mxCell id="KlWJ0E5zpvOS__4lGVaB-1" value="地图" style="text;html=1;strokeColor=none;fillColor=none;align=center;verticalAlign=middle;whiteSpace=wrap;rounded=0;comic=1;fontFamily=Comic Sans MS;fontSize=16;fontStyle=1" parent="1" vertex="1">
          <mxGeometry x="611.75" y="260" width="50" height="20" as="geometry" />
        </mxCell>
        <mxCell id="07GgqiMLKD5ptPio6yUv-8" value="地图" style="text;html=1;strokeColor=none;fillColor=none;align=center;verticalAlign=middle;whiteSpace=wrap;rounded=0;comic=1;fontFamily=Comic Sans MS;fontSize=16;fontStyle=1" parent="1" vertex="1">
          <mxGeometry x="611.75" y="260" width="50" height="20" as="geometry" />
        </mxCell>
        <mxCell id="XQhjO7J8rdvKNfG-MFRs-3" value="Map Interface" style="rounded=0;whiteSpace=wrap;html=1;comic=1;fillColor=#d5e8d4;strokeColor=#82b366;fontSize=11;fontFamily=Comic Sans MS;" parent="1" vertex="1">
          <mxGeometry x="483.5" y="281" width="306.5" height="45" as="geometry" />
        </mxCell>
        <mxCell id="XQhjO7J8rdvKNfG-MFRs-8" value="地图" style="text;html=1;strokeColor=none;fillColor=none;align=center;verticalAlign=middle;whiteSpace=wrap;rounded=0;comic=1;fontFamily=Comic Sans MS;fontSize=16;fontStyle=1" parent="1" vertex="1">
          <mxGeometry x="611.75" y="251" width="50" height="20" as="geometry" />
        </mxCell>
        <mxCell id="XQhjO7J8rdvKNfG-MFRs-25" value="" style="rounded=0;whiteSpace=wrap;html=1;comic=1;fontFamily=Comic Sans MS;fontSize=16;fillColor=#fff2cc;strokeColor=#d6b656;" parent="1" vertex="1">
          <mxGeometry x="85" y="241" width="727.25" height="210" as="geometry" />
        </mxCell>
        <mxCell id="XQhjO7J8rdvKNfG-MFRs-27" value="Map Interface" style="rounded=0;whiteSpace=wrap;html=1;comic=1;fillColor=#d5e8d4;strokeColor=#82b366;fontSize=16;fontFamily=Comic Sans MS;" parent="1" vertex="1">
          <mxGeometry x="203" y="281" width="587" height="45" as="geometry" />
        </mxCell>
        <mxCell id="XQhjO7J8rdvKNfG-MFRs-32" value="地图" style="text;html=1;strokeColor=none;fillColor=none;align=center;verticalAlign=middle;whiteSpace=wrap;rounded=0;comic=1;fontFamily=Comic Sans MS;fontSize=16;fontStyle=1" parent="1" vertex="1">
          <mxGeometry x="423.63" y="251" width="50" height="20" as="geometry" />
        </mxCell>
        <mxCell id="XQhjO7J8rdvKNfG-MFRs-43" value="" style="rounded=0;whiteSpace=wrap;html=1;comic=1;fontFamily=Comic Sans MS;fontSize=16;fillColor=#eeeeee;strokeColor=#36393d;" parent="1" vertex="1">
          <mxGeometry x="84.63" y="473" width="731" height="300" as="geometry" />
        </mxCell>
        <mxCell id="XQhjO7J8rdvKNfG-MFRs-44" value="Meituan Map" style="rounded=0;whiteSpace=wrap;html=1;comic=1;fillColor=#f5f5f5;strokeColor=#666666;fontColor=#333333;fontSize=16;fontFamily=Comic Sans MS;" parent="1" vertex="1">
          <mxGeometry x="204" y="665" width="120" height="60" as="geometry" />
        </mxCell>
        <mxCell id="XQhjO7J8rdvKNfG-MFRs-45" value="Tencent Map" style="rounded=0;whiteSpace=wrap;html=1;comic=1;fillColor=#f5f5f5;strokeColor=#666666;fontColor=#333333;fontSize=16;fontFamily=Comic Sans MS;" parent="1" vertex="1">
          <mxGeometry x="354" y="665" width="120" height="60" as="geometry" />
        </mxCell>
        <mxCell id="XQhjO7J8rdvKNfG-MFRs-46" value="Amap Map" style="rounded=0;whiteSpace=wrap;html=1;comic=1;fillColor=#f5f5f5;strokeColor=#666666;fontColor=#333333;fontSize=16;fontFamily=Comic Sans MS;" parent="1" vertex="1">
          <mxGeometry x="504" y="665" width="120" height="60" as="geometry" />
        </mxCell>
        <mxCell id="XQhjO7J8rdvKNfG-MFRs-47" value="Baidu Map" style="rounded=0;whiteSpace=wrap;html=1;comic=1;fillColor=#f5f5f5;strokeColor=#666666;fontColor=#333333;fontSize=16;fontFamily=Comic Sans MS;" parent="1" vertex="1">
          <mxGeometry x="654" y="665" width="120" height="60" as="geometry" />
        </mxCell>
        <mxCell id="XQhjO7J8rdvKNfG-MFRs-48" value="Meituan Adapter" style="rounded=0;whiteSpace=wrap;html=1;comic=1;fillColor=#dae8fc;strokeColor=#6c8ebf;fontSize=16;fontFamily=Comic Sans MS;" parent="1" vertex="1">
          <mxGeometry x="204" y="585" width="120" height="60" as="geometry" />
        </mxCell>
        <mxCell id="XQhjO7J8rdvKNfG-MFRs-49" value="图商" style="text;html=1;strokeColor=none;fillColor=none;align=center;verticalAlign=middle;whiteSpace=wrap;rounded=0;comic=1;fontFamily=Comic Sans MS;fontSize=16;fontStyle=1" parent="1" vertex="1">
          <mxGeometry x="114" y="685" width="40" height="18" as="geometry" />
        </mxCell>
        <mxCell id="XQhjO7J8rdvKNfG-MFRs-50" value="Tencent&lt;br&gt;Adapter" style="rounded=0;whiteSpace=wrap;html=1;comic=1;fillColor=#dae8fc;strokeColor=#6c8ebf;fontSize=16;fontFamily=Comic Sans MS;" parent="1" vertex="1">
          <mxGeometry x="354" y="585" width="120" height="60" as="geometry" />
        </mxCell>
        <mxCell id="XQhjO7J8rdvKNfG-MFRs-51" value="AMap&lt;br&gt;Adapter" style="rounded=0;whiteSpace=wrap;html=1;comic=1;fillColor=#dae8fc;strokeColor=#6c8ebf;fontSize=16;fontFamily=Comic Sans MS;" parent="1" vertex="1">
          <mxGeometry x="504" y="585" width="120" height="60" as="geometry" />
        </mxCell>
        <mxCell id="XQhjO7J8rdvKNfG-MFRs-52" value="Baidu&lt;br&gt;Adapter" style="rounded=0;whiteSpace=wrap;html=1;comic=1;fillColor=#dae8fc;strokeColor=#6c8ebf;fontSize=16;fontFamily=Comic Sans MS;" parent="1" vertex="1">
          <mxGeometry x="654" y="585" width="120" height="60" as="geometry" />
        </mxCell>
        <mxCell id="XQhjO7J8rdvKNfG-MFRs-53" value="适配层" style="text;html=1;strokeColor=none;fillColor=none;align=center;verticalAlign=middle;whiteSpace=wrap;rounded=0;comic=1;fontFamily=Comic Sans MS;fontSize=16;fontStyle=1" parent="1" vertex="1">
          <mxGeometry x="114" y="605" width="50" height="20" as="geometry" />
        </mxCell>
        <mxCell id="XQhjO7J8rdvKNfG-MFRs-55" value="接口层" style="text;html=1;strokeColor=none;fillColor=none;align=center;verticalAlign=middle;whiteSpace=wrap;rounded=0;comic=1;fontFamily=Comic Sans MS;fontSize=16;fontStyle=1" parent="1" vertex="1">
          <mxGeometry x="114" y="525" width="50" height="20" as="geometry" />
        </mxCell>
        <mxCell id="XQhjO7J8rdvKNfG-MFRs-56" value="统一&lt;br&gt;地图" style="text;html=1;strokeColor=none;fillColor=none;align=center;verticalAlign=middle;whiteSpace=wrap;rounded=0;comic=1;fontFamily=Comic Sans MS;fontSize=16;fontStyle=1" parent="1" vertex="1">
          <mxGeometry x="11" y="605" width="58" height="20" as="geometry" />
        </mxCell>
        <mxCell id="AUB2p11LhJhiM78vF_-q-1" value="统一Map" style="rounded=0;whiteSpace=wrap;html=1;comic=1;fillColor=#f5f5f5;strokeColor=#666666;fontSize=16;fontFamily=Comic Sans MS;fontColor=#333333;" parent="1" vertex="1">
          <mxGeometry x="205" y="398" width="584" height="40" as="geometry" />
        </mxCell>
        <mxCell id="AUB2p11LhJhiM78vF_-q-2" value="统一 Adapter" style="rounded=0;whiteSpace=wrap;html=1;comic=1;fillColor=#dae8fc;strokeColor=#6c8ebf;fontSize=16;fontFamily=Comic Sans MS;" parent="1" vertex="1">
          <mxGeometry x="205" y="341" width="584" height="42" as="geometry" />
        </mxCell>
        <mxCell id="AUB2p11LhJhiM78vF_-q-3" value="统一 Interface" style="rounded=0;whiteSpace=wrap;html=1;comic=1;fillColor=#d5e8d4;strokeColor=#82b366;fontSize=16;fontFamily=Comic Sans MS;" parent="1" vertex="1">
          <mxGeometry x="204" y="505" width="570" height="60" as="geometry" />
        </mxCell>
        <mxCell id="AUB2p11LhJhiM78vF_-q-5" value="Flutter" style="text;html=1;strokeColor=none;fillColor=none;align=center;verticalAlign=middle;whiteSpace=wrap;rounded=0;comic=1;fontFamily=Comic Sans MS;fontSize=16;fontStyle=1" parent="1" vertex="1">
          <mxGeometry x="11" y="50" width="50" height="20" as="geometry" />
        </mxCell>
        <mxCell id="AUB2p11LhJhiM78vF_-q-44" style="edgeStyle=orthogonalEdgeStyle;curved=1;orthogonalLoop=1;jettySize=auto;html=1;exitX=0.75;exitY=0;exitDx=0;exitDy=0;entryX=0.364;entryY=1.017;entryDx=0;entryDy=0;entryPerimeter=0;fontFamily=Comic Sans MS;fontSize=16;" parent="1" source="AUB2p11LhJhiM78vF_-q-7" target="AUB2p11LhJhiM78vF_-q-36" edge="1">
          <mxGeometry relative="1" as="geometry" />
        </mxCell>
        <mxCell id="AUB2p11LhJhiM78vF_-q-7" value="Java" style="rounded=0;whiteSpace=wrap;html=1;comic=1;fillColor=#f5f5f5;strokeColor=#666666;fontColor=#333333;fontSize=16;fontFamily=Comic Sans MS;" parent="1" vertex="1">
          <mxGeometry x="204" y="112" width="366" height="60" as="geometry" />
        </mxCell>
        <mxCell id="AUB2p11LhJhiM78vF_-q-12" value="桥接侧" style="text;html=1;strokeColor=none;fillColor=none;align=center;verticalAlign=middle;whiteSpace=wrap;rounded=0;comic=1;fontFamily=Comic Sans MS;fontSize=16;fontStyle=1" parent="1" vertex="1">
          <mxGeometry x="112" y="130" width="54" height="18" as="geometry" />
        </mxCell>
        <mxCell id="AUB2p11LhJhiM78vF_-q-17" value="Dart侧" style="text;html=1;strokeColor=none;fillColor=none;align=center;verticalAlign=middle;whiteSpace=wrap;rounded=0;comic=1;fontFamily=Comic Sans MS;fontSize=16;fontStyle=1" parent="1" vertex="1">
          <mxGeometry x="114" y="-28" width="56" height="20" as="geometry" />
        </mxCell>
        <mxCell id="AUB2p11LhJhiM78vF_-q-45" style="edgeStyle=orthogonalEdgeStyle;curved=1;orthogonalLoop=1;jettySize=auto;html=1;exitX=0.5;exitY=1;exitDx=0;exitDy=0;entryX=0.636;entryY=0;entryDx=0;entryDy=0;entryPerimeter=0;fontFamily=Comic Sans MS;fontSize=16;" parent="1" edge="1">
          <mxGeometry relative="1" as="geometry">
            <mxPoint x="479" y="12" as="sourcePoint" />
            <mxPoint x="499.9359999999999" y="30" as="targetPoint" />
          </mxGeometry>
        </mxCell>
        <mxCell id="AUB2p11LhJhiM78vF_-q-18" value="Dart Interface" style="rounded=0;whiteSpace=wrap;html=1;comic=1;fillColor=#d5e8d4;strokeColor=#82b366;fontSize=16;fontFamily=Comic Sans MS;" parent="1" vertex="1">
          <mxGeometry x="204" y="-48" width="570" height="60" as="geometry" />
        </mxCell>
        <mxCell id="AUB2p11LhJhiM78vF_-q-23" value="业务" style="text;html=1;strokeColor=none;fillColor=none;align=center;verticalAlign=middle;whiteSpace=wrap;rounded=0;comic=1;fontFamily=Comic Sans MS;fontSize=16;fontStyle=1" parent="1" vertex="1">
          <mxGeometry x="15" y="-150" width="50" height="20" as="geometry" />
        </mxCell>
        <mxCell id="AUB2p11LhJhiM78vF_-q-24" value="打车" style="rounded=0;whiteSpace=wrap;html=1;comic=1;fontSize=16;fontFamily=Comic Sans MS;fillColor=#f8cecc;strokeColor=#b85450;" parent="1" vertex="1">
          <mxGeometry x="89" y="-170" width="351" height="60" as="geometry" />
        </mxCell>
        <mxCell id="AUB2p11LhJhiM78vF_-q-25" value="其他" style="rounded=0;whiteSpace=wrap;html=1;comic=1;fontSize=16;fontFamily=Comic Sans MS;fillColor=#e1d5e7;strokeColor=#9673a6;" parent="1" vertex="1">
          <mxGeometry x="464.63" y="-170" width="351" height="60" as="geometry" />
        </mxCell>
        <mxCell id="AUB2p11LhJhiM78vF_-q-34" value="PlatformView" style="rounded=0;whiteSpace=wrap;html=1;dashed=1;comic=1;sketch=0;fontFamily=Comic Sans MS;fontSize=16;fillColor=#dae8fc;strokeColor=#6c8ebf;" parent="1" vertex="1">
          <mxGeometry x="204" y="30" width="166" height="60" as="geometry" />
        </mxCell>
        <mxCell id="AUB2p11LhJhiM78vF_-q-43" style="edgeStyle=orthogonalEdgeStyle;curved=1;orthogonalLoop=1;jettySize=auto;html=1;exitX=0.25;exitY=0;exitDx=0;exitDy=0;entryX=0.398;entryY=1;entryDx=0;entryDy=0;entryPerimeter=0;fontFamily=Comic Sans MS;fontSize=16;" parent="1" edge="1">
          <mxGeometry relative="1" as="geometry">
            <mxPoint x="458" y="30" as="sourcePoint" />
            <mxPoint x="446.8600000000001" y="12" as="targetPoint" />
          </mxGeometry>
        </mxCell>
        <mxCell id="AUB2p11LhJhiM78vF_-q-47" style="edgeStyle=orthogonalEdgeStyle;curved=1;orthogonalLoop=1;jettySize=auto;html=1;exitX=0.5;exitY=1;exitDx=0;exitDy=0;entryX=0.825;entryY=0.017;entryDx=0;entryDy=0;entryPerimeter=0;fontFamily=Comic Sans MS;fontSize=16;" parent="1" source="AUB2p11LhJhiM78vF_-q-36" target="AUB2p11LhJhiM78vF_-q-7" edge="1">
          <mxGeometry relative="1" as="geometry" />
        </mxCell>
        <mxCell id="AUB2p11LhJhiM78vF_-q-36" value="MethodChannel" style="rounded=0;whiteSpace=wrap;html=1;dashed=1;comic=1;sketch=0;fontFamily=Comic Sans MS;fontSize=16;fillColor=#dae8fc;strokeColor=#6c8ebf;" parent="1" vertex="1">
          <mxGeometry x="398" y="30" width="176" height="60" as="geometry" />
        </mxCell>
        <mxCell id="AUB2p11LhJhiM78vF_-q-40" style="edgeStyle=orthogonalEdgeStyle;curved=1;orthogonalLoop=1;jettySize=auto;html=1;exitX=0.5;exitY=0;exitDx=0;exitDy=0;entryX=0.842;entryY=0.983;entryDx=0;entryDy=0;entryPerimeter=0;fontFamily=Comic Sans MS;fontSize=16;" parent="1" source="AUB2p11LhJhiM78vF_-q-37" target="AUB2p11LhJhiM78vF_-q-18" edge="1">
          <mxGeometry relative="1" as="geometry" />
        </mxCell>
        <mxCell id="AUB2p11LhJhiM78vF_-q-37" value="EventChannel" style="rounded=0;whiteSpace=wrap;html=1;dashed=1;comic=1;sketch=0;fontFamily=Comic Sans MS;fontSize=16;fillColor=#dae8fc;strokeColor=#6c8ebf;" parent="1" vertex="1">
          <mxGeometry x="598" y="30" width="176" height="60" as="geometry" />
        </mxCell>
        <mxCell id="AUB2p11LhJhiM78vF_-q-39" style="edgeStyle=orthogonalEdgeStyle;orthogonalLoop=1;jettySize=auto;html=1;exitX=0.5;exitY=0;exitDx=0;exitDy=0;entryX=0.5;entryY=1;entryDx=0;entryDy=0;fontFamily=Comic Sans MS;fontSize=16;curved=1;" parent="1" source="AUB2p11LhJhiM78vF_-q-38" target="AUB2p11LhJhiM78vF_-q-37" edge="1">
          <mxGeometry relative="1" as="geometry" />
        </mxCell>
        <mxCell id="AUB2p11LhJhiM78vF_-q-38" value="callback" style="rounded=0;whiteSpace=wrap;html=1;comic=1;fillColor=#f5f5f5;strokeColor=#666666;fontColor=#333333;fontSize=16;fontFamily=Comic Sans MS;" parent="1" vertex="1">
          <mxGeometry x="595" y="112" width="182" height="60" as="geometry" />
        </mxCell>
        <mxCell id="GQCUfjLmJ6SHOaKaMM6K-1" value="接口层" style="text;html=1;strokeColor=none;fillColor=none;align=center;verticalAlign=middle;whiteSpace=wrap;rounded=0;comic=1;fontFamily=Comic Sans MS;fontSize=16;fontStyle=1" vertex="1" parent="1">
          <mxGeometry x="116" y="293.5" width="50" height="20" as="geometry" />
        </mxCell>
        <mxCell id="GQCUfjLmJ6SHOaKaMM6K-2" value="适配层" style="text;html=1;strokeColor=none;fillColor=none;align=center;verticalAlign=middle;whiteSpace=wrap;rounded=0;comic=1;fontFamily=Comic Sans MS;fontSize=16;fontStyle=1" vertex="1" parent="1">
          <mxGeometry x="114" y="350" width="50" height="20" as="geometry" />
        </mxCell>
        <mxCell id="GQCUfjLmJ6SHOaKaMM6K-3" value="图商" style="text;html=1;strokeColor=none;fillColor=none;align=center;verticalAlign=middle;whiteSpace=wrap;rounded=0;comic=1;fontFamily=Comic Sans MS;fontSize=16;fontStyle=1" vertex="1" parent="1">
          <mxGeometry x="116" y="409" width="40" height="18" as="geometry" />
        </mxCell>
      </root>
    </mxGraphModel>
  </diagram>
</mxfile>
